<?xml version="1.0" standalone="no"?>
   <!DOCTYPE svg PUBLIC "-//W3C//DTD SVG 1.1//EN" 
   "http://www.w3.org/Graphics/SVG/1.1/DTD/svg11.dtd"><svg id="svg" version="1.1" width="2046" height="4458" xmlns="http://www.w3.org/2000/svg"><path d="M650.604 373.541 C 636.462 378.054,621.097 391.121,593.258 422.312 C 577.873 439.549,571.538 449.538,574.263 452.263 C 575.226 453.226,574.187 456.148,571.955 458.757 C 566.771 464.815,559.718 487.762,554.910 514.215 C 550.634 537.740,552.381 580.983,559.223 621.000 C 573.155 702.476,574.175 981.048,560.910 1081.500 C 559.167 1094.700,555.093 1125.075,551.857 1149.000 C 548.621 1172.925,545.441 1203.300,544.791 1216.500 C 543.542 1241.863,537.855 1294.406,535.537 1302.000 C 534.782 1304.475,532.043 1328.100,529.452 1354.500 C 526.860 1380.900,523.526 1407.225,522.043 1413.000 C 520.560 1418.775,518.502 1433.625,517.470 1446.000 C 515.228 1472.878,508.406 1520.451,502.628 1549.500 C 500.331 1561.050,495.512 1588.725,491.920 1611.000 C 485.799 1648.963,473.176 1717.647,463.526 1765.500 C 455.234 1806.620,444.356 1867.757,442.442 1884.000 C 441.372 1893.075,438.441 1908.600,435.929 1918.500 C 433.417 1928.400,430.307 1943.250,429.020 1951.500 C 427.732 1959.750,423.272 1982.700,419.108 2002.500 C 410.497 2043.448,395.231 2131.065,390.099 2169.000 C 385.992 2199.351,379.512 2233.714,364.359 2305.500 C 360.179 2325.300,353.317 2354.895,349.110 2371.267 C 342.259 2397.924,336.185 2429.632,322.342 2511.000 C 319.956 2525.025,315.874 2545.950,313.272 2557.500 C 293.232 2646.429,286.274 2683.712,281.917 2725.500 C 280.197 2742.000,277.425 2764.950,275.757 2776.500 C 262.989 2864.914,261.238 2885.736,259.612 2968.500 C 258.672 3016.350,257.139 3061.427,256.205 3068.670 C 255.271 3075.914,256.025 3096.164,257.881 3113.670 C 267.626 3205.583,270.758 3230.096,276.202 3257.032 C 279.477 3273.240,285.529 3306.075,289.652 3330.000 C 293.775 3353.925,299.967 3382.275,303.413 3393.000 C 306.858 3403.725,312.853 3422.625,316.734 3435.000 C 320.615 3447.375,325.863 3463.960,328.395 3471.855 C 330.928 3479.750,333.000 3488.590,333.000 3491.499 C 333.000 3499.378,348.402 3541.379,360.687 3567.000 C 366.620 3579.375,381.718 3610.842,394.237 3636.926 C 406.757 3663.010,417.000 3687.029,417.000 3690.301 C 417.000 3693.574,419.753 3699.206,423.118 3702.818 C 426.483 3706.430,432.578 3716.161,436.662 3724.443 C 440.746 3732.724,448.853 3746.250,454.678 3754.500 C 460.503 3762.750,470.271 3776.770,476.385 3785.655 C 482.498 3794.540,488.850 3803.707,490.500 3806.026 C 493.624 3810.419,513.430 3831.421,558.219 3877.839 C 613.858 3935.501,718.378 4009.216,773.086 4029.380 C 782.664 4032.910,791.850 4036.815,793.500 4038.059 C 807.743 4048.793,874.102 4069.013,906.000 4072.338 C 916.725 4073.456,934.275 4076.298,945.000 4078.654 C 957.930 4081.495,988.759 4083.277,1036.500 4083.945 C 1133.796 4085.305,1155.835 4082.966,1278.000 4058.323 C 1287.075 4056.493,1303.275 4051.976,1314.000 4048.287 C 1324.725 4044.598,1342.795 4039.315,1354.155 4036.548 C 1365.515 4033.781,1379.690 4029.373,1385.655 4026.753 C 1391.620 4024.133,1401.900 4019.619,1408.500 4016.723 C 1415.100 4013.826,1426.575 4009.706,1434.000 4007.568 C 1441.425 4005.429,1452.900 4000.158,1459.500 3995.853 C 1466.100 3991.548,1478.925 3984.952,1488.000 3981.194 C 1497.075 3977.436,1507.200 3971.960,1510.500 3969.025 C 1513.800 3966.091,1519.469 3962.790,1523.097 3961.691 C 1526.726 3960.592,1533.735 3955.918,1538.673 3951.306 C 1543.611 3946.693,1551.442 3940.504,1556.076 3937.554 C 1574.222 3925.997,1621.511 3878.345,1638.001 3855.000 C 1642.080 3849.225,1649.099 3841.384,1653.598 3837.576 C 1661.702 3830.718,1689.000 3793.698,1689.000 3789.566 C 1689.000 3788.386,1693.866 3780.195,1699.813 3771.363 C 1712.595 3752.383,1742.186 3693.622,1752.873 3666.000 C 1763.393 3638.806,1765.877 3629.911,1772.975 3594.000 C 1785.994 3528.134,1788.469 3498.921,1790.136 3391.500 C 1792.055 3267.819,1791.370 3259.950,1760.855 3055.500 C 1755.930 3022.500,1750.031 2984.700,1747.747 2971.500 C 1740.379 2928.918,1727.378 2813.278,1720.596 2730.000 C 1718.378 2702.775,1715.075 2669.025,1713.254 2655.000 C 1710.659 2635.014,1698.000 2465.948,1698.000 2451.281 C 1698.000 2449.476,1696.001 2448.000,1693.557 2448.000 C 1688.705 2448.000,1684.264 2460.763,1687.368 2465.787 C 1689.138 2468.651,1683.742 2496.561,1677.176 2518.500 C 1675.694 2523.450,1673.581 2533.230,1672.480 2540.234 C 1671.379 2547.238,1669.263 2553.719,1667.778 2554.637 C 1666.294 2555.555,1662.963 2563.999,1660.378 2573.403 C 1657.792 2582.806,1652.510 2598.600,1648.640 2608.500 C 1644.770 2618.400,1639.640 2632.575,1637.240 2640.000 C 1634.839 2647.425,1625.370 2675.775,1616.195 2703.000 C 1607.021 2730.225,1597.307 2761.275,1594.609 2772.000 C 1591.910 2782.725,1585.851 2799.600,1581.143 2809.500 C 1570.488 2831.908,1561.082 2858.025,1544.951 2910.000 C 1538.037 2932.275,1530.495 2956.285,1528.190 2963.355 C 1525.886 2970.425,1524.000 2977.599,1524.000 2979.297 C 1524.000 2980.995,1520.625 2989.763,1516.500 2998.781 C 1512.375 3007.799,1509.000 3016.008,1509.000 3017.023 C 1509.000 3019.355,1471.402 3114.384,1464.085 3130.546 C 1461.085 3137.171,1453.945 3154.727,1448.217 3169.558 C 1442.489 3184.390,1434.931 3201.881,1431.423 3208.427 C 1426.103 3218.354,1425.709 3220.994,1429.049 3224.335 C 1432.389 3227.675,1435.498 3226.888,1447.777 3219.592 C 1455.875 3214.781,1470.263 3206.319,1479.750 3200.788 C 1489.238 3195.257,1497.000 3189.668,1497.000 3188.366 C 1497.000 3187.065,1498.866 3186.000,1501.148 3186.000 C 1503.429 3186.000,1522.572 3174.389,1543.689 3160.198 C 1564.805 3146.007,1583.690 3133.779,1585.657 3133.025 C 1588.125 3132.078,1590.690 3141.690,1593.944 3164.076 C 1601.422 3215.537,1601.852 3219.876,1606.535 3291.000 C 1613.949 3403.593,1612.243 3441.639,1596.240 3520.587 C 1590.433 3549.238,1557.631 3643.041,1540.311 3680.528 C 1520.079 3724.317,1478.132 3766.089,1421.462 3798.881 C 1413.741 3803.349,1405.641 3808.763,1403.462 3810.913 C 1399.910 3814.417,1356.180 3839.731,1348.565 3842.692 C 1346.879 3843.347,1336.974 3847.760,1326.553 3852.497 C 1269.633 3878.376,1253.413 3882.306,1174.500 3889.335 C 1096.330 3896.298,1004.935 3890.237,954.000 3874.712 C 946.575 3872.449,924.596 3866.348,905.158 3861.154 C 850.437 3846.533,808.538 3824.243,766.711 3787.500 C 742.937 3766.617,696.000 3720.691,696.000 3718.314 C 696.000 3717.232,677.755 3698.175,655.455 3675.965 C 633.155 3653.755,612.237 3630.615,608.971 3624.542 C 605.706 3618.469,599.988 3608.590,596.267 3602.588 C 592.545 3596.587,585.205 3584.437,579.955 3575.588 C 574.705 3566.740,564.190 3550.050,556.589 3538.500 C 544.018 3519.399,504.094 3441.597,503.933 3435.887 C 503.896 3434.574,499.876 3425.400,495.000 3415.500 C 490.124 3405.600,486.104 3395.679,486.067 3393.453 C 486.030 3391.228,484.173 3385.153,481.940 3379.953 C 469.489 3350.961,465.216 3339.447,463.401 3330.000 C 459.826 3311.390,456.690 3298.944,450.174 3277.500 C 435.592 3229.509,434.559 3215.003,434.255 3054.000 C 434.018 2928.536,434.788 2897.602,438.736 2874.000 C 441.358 2858.325,444.384 2835.375,445.462 2823.000 C 446.539 2810.625,449.421 2788.350,451.866 2773.500 C 454.311 2758.650,456.936 2742.450,457.700 2737.500 C 458.463 2732.550,461.029 2717.700,463.401 2704.500 C 465.773 2691.300,469.943 2667.000,472.668 2650.500 C 475.392 2634.000,480.776 2603.625,484.632 2583.000 C 488.489 2562.375,492.543 2538.075,493.643 2529.000 C 494.742 2519.925,501.458 2486.850,508.565 2455.500 C 515.673 2424.150,523.671 2386.350,526.339 2371.500 C 529.007 2356.650,533.137 2335.725,535.516 2325.000 C 537.896 2314.275,541.964 2292.000,544.555 2275.500 C 550.282 2239.041,556.927 2203.613,562.561 2179.500 C 567.059 2160.250,589.814 2006.401,594.064 1966.500 C 595.471 1953.300,600.755 1915.500,605.807 1882.500 C 618.813 1797.542,627.201 1727.375,635.932 1630.500 C 642.295 1559.902,653.257 1462.738,658.609 1429.500 C 661.000 1414.650,664.232 1389.675,665.792 1374.000 C 667.351 1358.325,670.167 1329.975,672.049 1311.000 C 673.930 1292.025,676.611 1271.100,678.005 1264.500 C 679.400 1257.900,681.353 1244.400,682.345 1234.500 C 683.337 1224.600,685.423 1207.050,686.981 1195.500 C 688.539 1183.950,691.945 1154.925,694.549 1131.000 C 697.153 1107.075,701.186 1076.700,703.512 1063.500 C 705.838 1050.300,709.099 1030.725,710.758 1020.000 C 723.256 939.220,721.991 943.808,735.961 928.592 C 743.084 920.834,751.463 909.540,754.580 903.494 C 757.698 897.447,762.594 889.020,765.461 884.766 C 774.414 871.483,794.089 812.040,804.110 768.000 C 812.232 732.306,818.876 651.766,817.041 611.245 C 816.123 590.985,811.991 564.642,804.923 534.000 C 787.610 458.946,786.026 454.398,771.818 438.922 C 764.768 431.243,759.000 423.461,759.000 421.628 C 759.000 414.528,726.893 387.734,709.106 379.991 C 685.748 369.822,668.291 367.898,650.604 373.541 M709.500 390.074 C 716.100 394.011,722.175 397.967,723.000 398.866 C 723.825 399.765,727.200 401.934,730.500 403.687 C 737.668 407.494,767.352 451.339,769.979 462.000 C 770.996 466.125,772.809 470.850,774.008 472.500 C 775.207 474.150,781.178 490.946,787.276 509.823 C 796.669 538.902,798.831 550.821,801.427 587.823 C 804.549 632.339,802.919 698.694,797.775 736.500 C 793.297 769.411,779.960 822.042,771.987 838.265 C 760.945 860.732,754.821 864.810,734.313 863.350 C 724.860 862.677,716.371 861.371,715.449 860.449 C 714.526 859.526,713.108 846.785,712.298 832.136 C 710.980 808.312,711.527 804.392,717.484 795.000 C 738.447 761.949,759.973 704.857,768.385 660.000 C 773.299 633.796,774.103 618.917,773.169 571.500 C 771.937 508.942,769.581 498.399,754.114 486.233 C 741.047 475.954,727.690 479.239,711.750 496.652 C 704.738 504.313,699.000 512.767,699.000 515.440 C 699.000 518.113,697.106 525.745,694.791 532.400 C 683.664 564.391,681.000 587.046,680.971 649.929 C 680.943 711.174,681.719 722.617,692.129 814.500 C 697.700 863.677,700.232 1019.403,695.762 1038.000 C 692.390 1052.030,680.820 1136.888,679.196 1159.500 C 678.485 1169.400,676.604 1185.600,675.016 1195.500 C 668.987 1233.076,656.012 1338.558,651.030 1390.500 C 649.289 1408.650,646.604 1430.250,645.062 1438.500 C 643.521 1446.750,640.781 1467.675,638.973 1485.000 C 637.165 1502.325,633.743 1527.975,631.370 1542.000 C 624.246 1584.093,615.000 1668.859,615.000 1692.077 C 615.000 1704.034,610.929 1740.295,605.953 1772.658 C 600.978 1805.021,594.203 1850.400,590.898 1873.500 C 587.593 1896.600,583.633 1924.275,582.098 1935.000 C 580.562 1945.725,577.831 1970.700,576.029 1990.500 C 574.227 2010.300,571.488 2034.943,569.944 2045.263 C 562.261 2096.612,560.285 2109.445,556.439 2133.000 C 546.759 2192.287,536.555 2249.834,532.426 2268.429 C 529.992 2279.390,528.000 2292.899,528.000 2298.449 C 528.000 2303.999,526.552 2313.256,524.783 2319.020 C 523.014 2324.784,518.469 2346.375,514.683 2367.000 C 505.698 2415.944,487.442 2505.680,479.852 2538.208 C 476.553 2552.347,471.127 2581.372,467.795 2602.708 C 455.486 2681.526,453.526 2692.722,450.236 2703.000 C 433.675 2754.732,415.211 2948.027,416.851 3052.500 C 417.187 3073.950,417.889 3121.252,418.411 3157.616 C 419.434 3228.933,422.873 3259.632,433.520 3292.500 C 437.261 3304.050,443.292 3323.625,446.922 3336.000 C 450.552 3348.375,456.966 3367.950,461.175 3379.500 C 465.383 3391.050,470.739 3405.900,473.076 3412.500 C 479.636 3431.025,542.038 3557.051,545.803 3559.378 C 547.638 3560.512,553.032 3569.779,557.790 3579.970 C 562.547 3590.162,574.659 3608.625,584.704 3621.000 C 594.749 3633.375,605.205 3648.184,607.938 3653.909 C 610.671 3659.634,619.258 3671.109,627.020 3679.409 C 634.782 3687.709,645.071 3699.900,649.886 3706.500 C 654.700 3713.100,670.017 3729.300,683.925 3742.500 C 712.991 3770.088,709.618 3767.084,737.817 3790.500 C 749.740 3800.400,765.540 3813.563,772.930 3819.750 C 780.319 3825.938,788.645 3831.003,791.432 3831.007 C 794.220 3831.011,804.491 3836.443,814.259 3843.078 C 824.026 3849.713,835.501 3855.945,839.759 3856.927 C 844.016 3857.910,850.671 3860.697,854.547 3863.121 C 889.197 3884.789,1038.365 3909.130,1135.350 3908.941 C 1162.148 3908.889,1205.505 3904.151,1245.000 3896.957 C 1252.425 3895.605,1267.950 3892.894,1279.500 3890.933 C 1291.050 3888.972,1302.658 3886.276,1305.295 3884.942 C 1307.933 3883.608,1321.433 3877.792,1335.295 3872.017 C 1373.650 3856.038,1404.316 3838.521,1441.720 3811.226 C 1453.391 3802.709,1465.661 3794.877,1468.985 3793.822 C 1476.793 3791.344,1542.000 3723.829,1542.000 3718.222 C 1542.000 3717.157,1546.613 3708.683,1552.252 3699.392 C 1557.890 3690.102,1565.803 3673.725,1569.836 3663.000 C 1573.868 3652.275,1582.080 3633.746,1588.084 3621.825 C 1594.088 3609.904,1599.059 3597.079,1599.132 3593.325 C 1599.204 3589.571,1601.363 3581.100,1603.929 3574.500 C 1609.250 3560.812,1615.590 3536.015,1621.569 3505.500 C 1626.376 3480.969,1627.621 3349.027,1623.234 3329.078 C 1621.712 3322.160,1618.904 3295.575,1616.995 3270.000 C 1612.235 3206.258,1605.686 3145.637,1601.520 3126.750 C 1598.114 3111.313,1592.855 3106.766,1587.899 3114.973 C 1586.580 3117.157,1569.300 3128.838,1549.500 3140.928 C 1529.700 3153.019,1505.632 3167.769,1496.016 3173.706 C 1457.925 3197.223,1455.000 3198.680,1455.000 3194.143 C 1455.000 3191.775,1458.240 3185.063,1462.200 3179.228 C 1466.159 3173.393,1470.368 3165.442,1471.553 3161.559 C 1472.737 3157.677,1478.064 3145.725,1483.390 3135.000 C 1488.717 3124.275,1497.452 3101.325,1502.801 3084.000 C 1508.151 3066.675,1515.891 3043.725,1520.000 3033.000 C 1574.618 2890.454,1595.828 2832.869,1611.712 2784.000 C 1615.734 2771.625,1628.694 2732.875,1640.513 2697.889 C 1652.331 2662.903,1662.000 2632.344,1662.000 2629.980 C 1662.000 2627.617,1665.388 2615.067,1669.529 2602.091 C 1676.749 2579.470,1683.667 2556.368,1687.668 2541.524 C 1688.702 2537.687,1690.054 2535.054,1690.672 2535.672 C 1691.291 2536.291,1693.872 2585.330,1696.409 2644.648 C 1698.946 2703.967,1702.296 2760.600,1703.855 2770.500 C 1705.413 2780.400,1707.445 2798.625,1708.369 2811.000 C 1709.293 2823.375,1712.064 2847.000,1714.526 2863.500 C 1716.988 2880.000,1721.089 2908.350,1723.640 2926.500 C 1726.191 2944.650,1729.483 2966.925,1730.954 2976.000 C 1732.426 2985.075,1738.512 3029.625,1744.480 3075.000 C 1759.902 3192.268,1760.173 3194.107,1765.716 3219.000 C 1774.929 3260.371,1775.823 3273.972,1776.068 3376.500 C 1776.440 3531.565,1767.837 3593.865,1737.518 3655.685 C 1732.712 3665.483,1727.897 3678.410,1726.818 3684.411 C 1723.598 3702.312,1711.253 3729.695,1691.593 3762.548 C 1681.405 3779.572,1672.214 3794.175,1671.169 3795.000 C 1670.124 3795.825,1666.621 3800.689,1663.385 3805.809 C 1660.148 3810.930,1649.822 3823.755,1640.438 3834.309 C 1631.054 3844.864,1616.679 3861.315,1608.494 3870.868 C 1573.203 3912.050,1517.893 3954.459,1474.490 3973.615 C 1464.596 3977.983,1454.656 3983.076,1452.401 3984.934 C 1446.425 3989.862,1428.489 3996.228,1413.000 3998.919 C 1400.906 4001.020,1375.803 4010.016,1361.021 4017.546 C 1352.812 4021.728,1320.145 4031.337,1306.500 4033.583 C 1299.900 4034.670,1287.075 4038.263,1278.000 4041.569 C 1268.925 4044.874,1254.075 4048.795,1245.000 4050.282 C 1235.925 4051.769,1217.700 4054.973,1204.500 4057.402 C 1146.069 4068.152,1098.080 4071.636,1034.438 4069.750 C 1000.305 4068.738,959.130 4065.887,942.938 4063.414 C 926.747 4060.941,905.400 4057.724,895.500 4056.266 C 885.600 4054.808,874.125 4052.235,870.000 4050.549 C 865.875 4048.862,855.075 4045.214,846.000 4042.442 C 830.764 4037.787,797.877 4023.927,785.077 4016.767 C 782.094 4015.098,771.294 4009.548,761.077 4004.433 C 739.257 3993.510,710.326 3976.474,697.217 3966.830 C 692.111 3963.073,686.917 3960.000,685.674 3960.000 C 684.431 3960.000,673.083 3952.523,660.457 3943.384 C 592.423 3894.143,531.872 3836.681,500.934 3792.000 C 496.935 3786.225,491.136 3778.800,488.048 3775.500 C 481.082 3768.056,465.000 3745.076,465.000 3742.565 C 465.000 3741.546,460.275 3733.325,454.500 3724.298 C 448.725 3715.270,444.000 3706.202,444.000 3704.147 C 444.000 3700.154,432.563 3677.503,429.283 3675.000 C 428.202 3674.175,421.594 3660.675,414.598 3645.000 C 407.603 3629.325,399.647 3612.450,396.918 3607.500 C 379.868 3576.568,367.463 3547.060,351.378 3499.177 C 332.383 3442.631,329.158 3431.108,314.952 3369.000 C 310.234 3348.375,304.248 3322.725,301.651 3312.000 C 299.053 3301.275,295.553 3282.375,293.873 3270.000 C 292.193 3257.625,289.605 3242.775,288.124 3237.000 C 286.642 3231.225,283.940 3210.975,282.119 3192.000 C 280.298 3173.025,277.226 3146.700,275.291 3133.500 C 270.232 3098.980,271.433 2944.748,277.274 2878.941 C 279.889 2849.484,282.586 2824.479,283.268 2823.375 C 283.951 2822.271,286.697 2799.122,289.371 2771.934 C 292.045 2744.745,297.436 2706.300,301.351 2686.500 C 305.265 2666.700,310.720 2637.675,313.472 2622.000 C 317.894 2596.810,323.274 2571.392,337.920 2506.500 C 340.155 2496.600,343.929 2477.025,346.307 2463.000 C 354.834 2412.709,366.252 2353.076,371.868 2329.500 C 388.733 2258.700,406.180 2173.650,410.947 2139.005 C 412.649 2126.632,416.610 2103.682,419.749 2088.005 C 422.888 2072.327,426.732 2050.050,428.290 2038.500 C 429.849 2026.950,435.956 1994.550,441.862 1966.500 C 455.189 1903.201,457.661 1889.638,465.100 1839.000 C 472.828 1786.393,485.017 1717.017,487.134 1713.592 C 490.088 1708.813,512.915 1567.019,523.694 1486.500 C 526.123 1468.350,531.366 1432.575,535.345 1407.000 C 539.324 1381.425,544.093 1348.350,545.943 1333.500 C 547.793 1318.650,550.565 1297.050,552.104 1285.500 C 553.643 1273.950,556.330 1245.600,558.074 1222.500 C 559.819 1199.400,563.205 1171.050,565.598 1159.500 C 583.515 1073.036,587.155 731.793,571.278 627.000 C 562.101 566.426,564.510 513.368,578.181 474.981 C 580.633 468.095,581.735 460.998,580.629 459.209 C 579.524 457.421,580.608 455.194,583.039 454.262 C 585.470 453.329,588.261 449.369,589.241 445.462 C 592.291 433.314,631.445 391.626,645.263 385.816 C 649.962 383.840,663.638 382.379,675.654 382.569 C 692.914 382.842,700.019 384.418,709.500 390.074 M605.102 478.971 C 602.716 483.662,599.241 496.386,597.381 507.246 C 593.139 532.019,592.962 620.793,597.112 642.341 C 600.061 657.654,602.329 754.851,602.791 885.750 C 602.999 944.625,605.429 957.404,611.869 933.488 C 613.951 925.753,614.071 902.873,612.232 863.738 C 610.727 831.707,609.999 791.325,610.614 774.000 C 611.229 756.675,610.509 728.998,609.013 712.496 C 607.517 695.994,605.372 655.494,604.246 622.496 C 603.119 589.498,600.863 560.813,599.231 558.750 C 597.227 556.216,597.357 555.000,599.633 555.000 C 601.763 555.000,603.001 548.111,603.004 536.250 C 603.005 525.938,604.935 507.392,607.291 495.037 C 609.647 482.683,611.095 472.095,610.508 471.508 C 609.922 470.922,607.489 474.280,605.102 478.971 M641.262 543.154 L 630.157 552.307 631.640 614.404 C 632.455 648.557,634.343 685.950,635.835 697.500 C 637.326 709.050,638.392 752.925,638.202 795.000 C 637.924 856.899,638.758 874.363,642.572 886.500 C 645.165 894.750,648.833 907.177,650.723 914.116 C 654.332 927.361,661.704 937.155,666.045 934.472 C 667.454 933.601,670.854 925.159,673.600 915.711 C 679.556 895.224,678.405 871.962,669.460 832.025 C 666.075 816.913,661.866 785.418,660.107 762.035 C 658.347 738.652,655.605 710.516,654.013 699.510 C 649.743 669.985,650.486 599.584,655.410 567.231 C 661.058 530.123,659.757 527.909,641.262 543.154 M727.176 655.738 C 731.553 667.143,718.055 729.827,703.487 765.750 C 697.092 781.520,693.492 763.268,691.107 702.978 C 689.380 659.312,688.904 660.496,710.825 653.845 C 722.552 650.286,725.202 650.593,727.176 655.738 M633.525 1256.703 C 633.267 1263.276,631.677 1283.920,629.991 1302.577 C 628.305 1321.235,625.647 1352.729,624.084 1372.564 C 622.521 1392.399,617.877 1436.274,613.763 1470.064 C 609.650 1503.854,605.474 1542.300,604.483 1555.500 C 602.542 1581.376,594.068 1647.375,592.317 1650.264 C 590.344 1653.517,560.796 1784.369,544.617 1861.500 C 527.085 1945.078,525.615 1952.405,516.018 2004.000 C 510.954 2031.225,505.610 2057.550,504.144 2062.500 C 502.678 2067.450,500.561 2078.925,499.441 2088.000 C 498.321 2097.075,492.753 2124.750,487.068 2149.500 C 481.383 2174.250,474.087 2208.000,470.854 2224.500 C 463.127 2263.938,456.952 2294.709,451.589 2320.500 C 449.188 2332.050,446.388 2348.250,445.366 2356.500 C 444.345 2364.750,441.420 2381.625,438.867 2394.000 C 436.314 2406.375,433.234 2421.900,432.022 2428.500 C 430.810 2435.100,426.848 2456.700,423.217 2476.500 C 419.586 2496.300,414.001 2525.325,410.806 2541.000 C 407.611 2556.675,403.719 2578.275,402.157 2589.000 C 396.348 2628.893,387.205 2687.068,384.005 2704.500 C 364.378 2811.412,355.477 2921.582,356.372 3046.500 C 356.881 3117.434,358.158 3138.461,364.681 3183.303 C 370.669 3224.462,374.830 3242.124,379.439 3245.950 C 386.060 3251.444,387.434 3244.757,383.872 3224.393 C 377.942 3190.498,371.739 3134.228,369.990 3098.460 C 368.215 3062.191,369.357 3051.521,385.984 2949.000 C 390.132 2923.425,395.397 2889.000,397.684 2872.500 C 399.971 2856.000,403.988 2828.325,406.611 2811.000 C 409.234 2793.675,412.552 2768.700,413.984 2755.500 C 417.806 2720.274,428.516 2650.213,433.245 2629.500 C 435.505 2619.600,438.986 2602.050,440.979 2590.500 C 442.973 2578.950,446.341 2560.050,448.464 2548.500 C 450.587 2536.950,454.637 2513.325,457.465 2496.000 C 465.706 2445.506,473.951 2403.082,479.913 2380.500 C 489.350 2344.757,497.712 2302.972,500.998 2275.143 C 506.928 2224.910,522.463 2136.463,543.614 2032.500 C 550.328 1999.500,556.916 1965.075,558.255 1956.000 C 563.179 1922.601,569.784 1886.777,571.541 1883.934 C 575.414 1877.667,584.779 1813.585,598.605 1698.750 C 601.138 1677.713,604.492 1650.375,606.059 1638.000 C 607.626 1625.625,611.646 1585.800,614.993 1549.500 C 618.339 1513.200,623.046 1468.650,625.452 1450.500 C 627.857 1432.350,631.176 1399.950,632.825 1378.500 C 634.474 1357.050,637.223 1322.625,638.933 1302.000 C 640.643 1281.375,642.370 1260.471,642.771 1255.546 C 643.274 1249.364,642.028 1246.306,638.747 1245.671 C 635.108 1244.967,633.883 1247.555,633.525 1256.703 M507.416 1703.056 C 505.810 1709.350,501.751 1732.725,498.396 1755.000 C 495.042 1777.275,488.721 1817.775,484.351 1845.000 C 479.981 1872.225,474.558 1908.101,472.300 1924.725 C 470.041 1941.348,464.016 1979.148,458.910 2008.725 C 453.804 2038.301,447.693 2075.325,445.331 2091.000 C 442.970 2106.675,439.683 2124.900,438.027 2131.500 C 434.200 2146.755,427.486 2179.872,423.124 2205.000 C 413.316 2261.511,410.612 2274.976,403.549 2302.500 C 399.314 2319.000,395.164 2342.482,394.325 2354.683 C 393.487 2366.883,387.978 2395.233,382.083 2417.683 C 362.877 2490.826,330.971 2646.080,319.440 2722.500 C 315.457 2748.900,310.120 2783.935,307.581 2800.357 C 293.479 2891.562,290.559 3086.956,302.842 3117.575 C 306.430 3126.521,306.930 3112.580,306.053 3027.925 C 304.894 2915.990,318.492 2774.428,341.587 2658.000 C 365.504 2537.426,376.344 2486.241,382.565 2464.500 C 391.859 2432.021,405.332 2370.598,406.908 2353.515 C 408.387 2337.499,415.684 2293.778,430.944 2209.500 C 433.632 2194.650,439.148 2168.325,443.199 2151.000 C 447.251 2133.675,453.054 2105.325,456.095 2088.000 C 459.136 2070.675,463.679 2045.025,466.192 2031.000 C 468.704 2016.975,472.140 1996.050,473.826 1984.500 C 475.513 1972.950,479.634 1944.600,482.983 1921.500 C 486.332 1898.400,492.431 1860.016,496.536 1836.201 C 500.641 1812.387,504.000 1788.843,504.000 1783.882 C 504.000 1778.920,505.309 1767.355,506.909 1758.181 C 512.748 1724.706,516.924 1698.122,516.690 1695.913 C 516.558 1694.668,515.074 1693.191,513.393 1692.631 C 511.711 1692.070,509.022 1696.762,507.416 1703.056 M1666.405 2741.190 C 1667.536 2745.694,1669.686 2766.957,1671.184 2788.440 C 1672.681 2809.923,1675.889 2847.075,1678.312 2871.000 C 1680.735 2894.925,1684.201 2934.075,1686.014 2958.000 C 1687.828 2981.925,1692.527 3020.400,1696.457 3043.500 C 1700.387 3066.600,1706.887 3113.850,1710.902 3148.500 C 1718.155 3211.107,1718.176 3212.146,1714.307 3315.000 C 1712.130 3372.891,1708.311 3432.381,1705.642 3450.000 C 1697.363 3504.657,1685.879 3555.943,1678.308 3572.064 C 1674.289 3580.625,1671.000 3588.456,1671.000 3589.467 C 1671.000 3592.817,1646.554 3648.963,1630.149 3683.293 C 1621.267 3701.879,1614.000 3717.726,1614.000 3718.508 C 1614.000 3720.947,1578.399 3780.017,1574.345 3784.306 C 1572.230 3786.543,1567.125 3792.901,1563.000 3798.436 C 1533.436 3838.106,1466.790 3889.014,1402.500 3921.034 C 1352.041 3946.166,1279.777 3972.478,1242.698 3979.219 C 1229.939 3981.538,1208.370 3986.295,1194.768 3989.790 C 1102.254 4013.555,966.075 4012.335,888.000 3987.041 C 877.275 3983.566,863.100 3979.137,856.500 3977.199 C 840.310 3972.444,779.300 3945.692,777.188 3942.422 C 776.260 3940.985,772.125 3938.814,768.000 3937.598 C 763.875 3936.382,753.075 3930.700,744.000 3924.972 C 734.925 3919.243,718.415 3908.885,707.310 3901.954 C 680.868 3885.450,632.380 3842.241,565.340 3775.438 C 523.608 3733.855,508.066 3716.198,498.000 3698.938 C 490.803 3686.597,483.272 3674.475,481.265 3672.000 C 471.782 3660.306,434.566 3587.528,422.203 3556.500 C 411.042 3528.488,390.000 3470.083,390.000 3467.115 C 390.000 3465.344,387.414 3458.406,384.254 3451.697 C 367.150 3415.390,355.863 3379.289,351.086 3345.606 C 349.379 3333.570,345.961 3312.133,343.491 3297.968 C 341.021 3283.803,339.000 3271.041,339.000 3269.607 C 339.000 3268.173,336.845 3267.000,334.210 3267.000 C 328.891 3267.000,328.992 3270.697,335.815 3325.500 C 341.958 3374.849,355.925 3429.978,366.217 3445.500 C 367.311 3447.150,370.598 3455.925,373.520 3465.000 C 376.443 3474.075,381.189 3486.900,384.066 3493.500 C 386.943 3500.100,392.975 3516.300,397.470 3529.500 C 401.966 3542.700,408.713 3560.250,412.464 3568.500 C 416.215 3576.750,420.785 3586.875,422.620 3591.000 C 424.455 3595.125,427.219 3600.525,428.762 3603.000 C 430.304 3605.475,435.760 3616.275,440.885 3627.000 C 453.138 3652.640,466.759 3677.565,471.831 3683.631 C 475.746 3688.311,498.000 3725.477,498.000 3727.334 C 498.000 3730.317,541.114 3798.577,550.814 3810.951 C 571.291 3837.073,638.490 3902.261,670.500 3927.054 C 700.189 3950.049,768.126 3992.879,787.500 4000.816 C 846.053 4024.800,896.489 4039.027,952.500 4047.356 C 962.400 4048.829,972.509 4050.782,974.964 4051.696 C 977.419 4052.611,1001.719 4053.251,1028.964 4053.118 C 1076.328 4052.886,1106.293 4050.744,1149.000 4044.538 C 1159.725 4042.979,1182.675 4040.113,1200.000 4038.169 C 1274.019 4029.863,1329.933 4016.452,1375.500 3996.077 C 1420.470 3975.969,1460.092 3954.739,1482.000 3939.013 C 1496.025 3928.945,1518.496 3913.356,1531.935 3904.370 C 1559.156 3886.170,1602.819 3843.932,1619.561 3819.605 C 1642.223 3786.676,1678.769 3723.852,1689.763 3698.924 C 1693.784 3689.808,1700.454 3676.983,1704.586 3670.424 C 1715.919 3652.437,1732.668 3603.037,1741.685 3561.000 C 1748.292 3530.201,1750.004 3513.068,1751.267 3465.124 C 1752.193 3429.982,1751.448 3395.355,1749.396 3378.124 C 1747.521 3362.381,1743.128 3324.525,1739.634 3294.000 C 1736.139 3263.475,1732.182 3231.075,1730.840 3222.000 C 1729.498 3212.925,1726.934 3192.000,1725.142 3175.500 C 1719.519 3123.712,1712.714 3074.898,1705.487 3034.500 C 1701.649 3013.050,1698.395 2985.375,1698.255 2973.000 C 1698.116 2960.625,1696.711 2940.375,1695.134 2928.000 C 1692.129 2904.424,1685.013 2834.775,1680.084 2780.688 C 1678.489 2763.191,1675.826 2745.304,1674.166 2740.938 C 1670.085 2730.202,1663.699 2730.409,1666.405 2741.190 M1594.005 2915.250 C 1593.011 2918.138,1584.165 2937.375,1574.348 2958.000 C 1544.099 3021.549,1539.803 3030.861,1531.438 3051.000 C 1519.243 3080.362,1503.916 3115.133,1495.200 3133.211 C 1489.834 3144.339,1489.827 3153.000,1495.184 3153.000 C 1500.257 3153.000,1563.164 3116.341,1578.432 3104.487 C 1584.444 3099.819,1590.272 3096.000,1591.382 3096.000 C 1592.492 3096.000,1598.072 3092.437,1603.782 3088.082 C 1609.492 3083.727,1614.734 3080.734,1615.431 3081.431 C 1617.347 3083.347,1624.462 3161.434,1636.575 3313.500 C 1643.939 3405.945,1644.327 3420.144,1641.113 3479.332 C 1638.425 3528.839,1636.572 3541.778,1625.958 3585.119 C 1612.066 3641.847,1602.534 3667.836,1588.598 3686.978 C 1583.183 3694.415,1575.813 3706.323,1572.219 3713.440 C 1565.882 3725.988,1565.866 3726.283,1571.672 3723.175 C 1574.966 3721.413,1582.800 3712.415,1589.080 3703.180 C 1595.361 3693.945,1603.475 3682.693,1607.112 3678.176 C 1621.052 3660.859,1637.241 3622.621,1643.385 3592.500 C 1660.438 3508.902,1660.509 3507.976,1660.371 3370.500 C 1660.237 3237.871,1654.687 3029.755,1650.289 2992.500 C 1646.020 2956.342,1640.841 2945.394,1617.587 2923.373 C 1602.366 2908.959,1596.827 2907.051,1594.005 2915.250 M531.000 3570.554 C 531.000 3579.276,533.334 3587.073,538.034 3594.054 C 541.902 3599.799,546.049 3608.495,547.248 3613.377 C 552.139 3633.286,572.254 3669.646,591.297 3693.000 C 616.673 3724.120,699.810 3802.598,726.425 3820.555 C 733.616 3825.407,744.742 3833.737,751.148 3839.067 C 762.462 3848.479,797.380 3867.000,803.811 3867.000 C 809.876 3867.000,806.955 3861.584,795.750 3852.050 C 789.563 3846.785,778.361 3836.858,770.857 3829.989 C 763.353 3823.120,747.156 3808.725,734.862 3798.000 C 722.569 3787.275,704.409 3770.984,694.506 3761.797 C 684.602 3752.610,665.379 3735.419,651.786 3723.595 C 629.171 3703.923,618.082 3692.731,600.665 3672.000 C 597.199 3667.875,591.582 3661.256,588.182 3657.291 C 584.782 3653.326,582.000 3648.885,582.000 3647.423 C 582.000 3645.960,577.275 3637.747,571.500 3629.172 C 565.725 3620.596,561.000 3611.402,561.000 3608.740 C 561.000 3606.078,557.015 3598.399,552.144 3591.675 C 547.273 3584.951,542.149 3575.053,540.756 3569.679 C 536.846 3554.590,531.000 3555.114,531.000 3570.554 " stroke="none" fill="black" fill-rule="evenodd"/></svg>